<svg width="71" height="103" viewBox="0 0 71 103" fill="none" xmlns="http://www.w3.org/2000/svg">
<mask id="mask0_6838_614" style="mask-type:luminance" maskUnits="userSpaceOnUse" x="0" y="2" width="68" height="101">
<path fill-rule="evenodd" clip-rule="evenodd" d="M0 2.02844H67.9302V103H0V2.02844Z" fill="white"/>
</mask>
<g mask="url(#mask0_6838_614)">
<path fill-rule="evenodd" clip-rule="evenodd" d="M23.1412 6.83368C23.1412 6.83368 -5.73901 33.9961 1.02699 67.3653C7.79299 100.734 40.8892 109.194 55.5619 98.854C70.2345 88.514 71.7448 68.2529 60.6674 51.1234C49.5889 33.9961 60.686 30.2351 58.9136 16.6062C57.1423 2.97613 31.4394 -2.85849 23.1412 6.83368Z" fill="#FAFAED"/>
</g>
<mask id="mask1_6838_614" style="mask-type:luminance" maskUnits="userSpaceOnUse" x="5" y="0" width="66" height="103">
<path fill-rule="evenodd" clip-rule="evenodd" d="M5.12305 0.704224H70.2916V102.917H5.12305V0.704224Z" fill="white"/>
</mask>
<g mask="url(#mask1_6838_614)">
<path fill-rule="evenodd" clip-rule="evenodd" d="M27.3229 5.56812C27.3229 5.56812 -0.382754 33.0631 6.10835 66.8436C12.5983 100.623 44.3498 109.187 58.4254 98.7196C72.501 88.2525 73.9519 67.7417 63.3237 50.403C52.6944 33.0631 63.3413 29.2574 61.6418 15.46C59.9412 1.66379 35.2836 -4.24363 27.3229 5.56812Z" fill="#FF4E42"/>
</g>
<path fill-rule="evenodd" clip-rule="evenodd" d="M31.6247 38.0185C37.5484 38.0185 42.2467 38.7555 47.3512 40.4054C47.4177 40.4315 49.8436 41.4214 51.3403 40.5791C51.9732 40.2242 52.3502 39.5859 52.4939 38.6296C52.7543 36.8917 53.1878 35.3232 53.6072 33.8057C54.4645 30.7034 55.2728 27.7726 54.7456 23.4351C54.1159 18.2801 49.0931 15.0856 44.6007 13.8145C39.8523 12.4717 33.7401 12.7626 30.7902 16.4413C30.702 16.5347 25.7478 21.555 21.409 29.5007C21.2794 30.0728 20.3937 34.3561 22.3164 36.6692C23.2358 37.7742 24.7129 38.2736 26.6661 38.1683C28.4242 38.0695 30.0669 38.0185 31.6247 38.0185ZM49.8393 42C48.3807 42 47.0528 41.4562 46.9722 41.4214C40.6258 39.3731 35.1258 38.7794 26.7282 39.2516C24.3992 39.3873 22.6269 38.7468 21.4754 37.3596C19.0746 34.4646 20.3131 29.3878 20.3665 29.174L20.4166 29.047C24.8425 20.92 29.9275 15.7716 29.9787 15.7206C33.202 11.6967 39.8033 11.3287 44.8992 12.7702C49.7271 14.1369 55.1334 17.6212 55.8262 23.3048C56.3807 27.854 55.5048 31.0269 54.6573 34.0945C54.2467 35.5805 53.8218 37.1175 53.5702 38.7902C53.3774 40.082 52.8055 41.0035 51.8719 41.5267C51.2434 41.8795 50.5266 42 49.8393 42Z" fill="#FFC024"/>
<path fill-rule="evenodd" clip-rule="evenodd" d="M23.5693 49.0883C22.743 49.0883 21.9178 49.1296 21.0947 49.2199C18.7528 49.4765 16.9774 50.4934 15.819 52.24C12.1674 57.743 15.4891 68.7467 15.5231 68.8576C18.6103 78.2333 25.5628 85.3644 34.5975 88.4127C41.7626 90.8271 49.1907 90.304 53.9886 87.05C64.3275 80.0343 65.8552 66.0442 57.6205 53.7854C57.6117 53.7854 55.0506 51.0296 52.5048 51.0241H52.4982C51.5425 51.0241 50.725 51.408 49.9984 52.1987C47.6937 54.7011 43.2191 53.3993 37.5554 51.7539C33.2188 50.4934 28.387 49.0883 23.5693 49.0883ZM43.4799 91C40.4902 91 37.3406 90.4856 34.2457 89.4416C24.8811 86.2833 17.6755 78.9 14.4776 69.185C14.3296 68.7043 10.9696 57.5744 14.9028 51.644C16.2486 49.6125 18.2925 48.4336 20.9753 48.1389C26.8165 47.4972 32.6851 49.2036 37.8633 50.7098C42.9528 52.1889 47.3474 53.4678 49.1896 51.4646C50.1222 50.451 51.2357 49.9366 52.4982 49.9366H52.5102C55.558 49.9453 58.3657 52.9893 58.483 53.1187C67.1144 65.9593 65.4651 80.5803 54.6067 87.9473C51.6291 89.9668 47.7167 91 43.4799 91Z" fill="#FFC024"/>
</svg>
