<svg width="104" height="104" viewBox="0 0 104 104" fill="none" xmlns="http://www.w3.org/2000/svg">
<path fill-rule="evenodd" clip-rule="evenodd" d="M102.618 45.513C102.618 35.9269 79.3728 27.828 51.8577 27.828C24.3425 27.828 1.09766 35.9269 1.09766 45.513C1.09766 47.1308 1.77374 48.7033 3.00602 50.2045C9.0767 42.8087 28.9854 37.211 51.8577 37.211C74.731 37.211 94.6386 42.8087 100.71 50.2045C101.943 48.7033 102.618 47.1308 102.618 45.513Z" fill="#FF4E42"/>
<path fill-rule="evenodd" clip-rule="evenodd" d="M51.8575 37.2105C28.9853 37.2105 9.07654 42.8092 3.00586 50.204C9.07654 57.5998 28.9853 63.1986 51.8575 63.1986C74.7308 63.1986 94.6385 57.5998 100.71 50.204C94.6385 42.8092 74.7308 37.2105 51.8575 37.2105Z" fill="#FFC024"/>
<path fill-rule="evenodd" clip-rule="evenodd" d="M51.8583 65.3583C77.815 65.3583 98.8501 58.6893 103.717 49.5709C103.312 59.8082 99.2627 86.4313 68.5831 93.5452H35.1334C4.45166 86.4313 0.404897 59.8039 0.000976562 49.5687C4.86314 58.6882 25.9005 65.3583 51.8583 65.3583ZM64.8375 99.4508H38.8786C36.8104 99.4508 35.1332 97.7736 35.1332 95.7054H68.5829C68.5829 97.7736 66.9057 99.4508 64.8375 99.4508Z" fill="#FAFAED"/>
<path fill-rule="evenodd" clip-rule="evenodd" d="M35.1547 35.3105C34.5575 35.3105 34.0747 34.8266 34.0747 34.2305C34.0747 31.9636 35.4938 30.8112 36.6343 29.8867C37.7586 28.9741 38.3947 28.4006 38.3947 27.2202C38.3947 26.0376 37.7586 25.463 36.6332 24.5504C35.4927 23.6238 34.0747 22.4714 34.0747 20.2034C34.0747 17.9344 35.4927 16.7809 36.6332 15.8543C37.7586 14.9406 38.3947 14.365 38.3947 13.1813C38.3947 11.9987 37.7586 11.423 36.6332 10.5094C35.4927 9.58272 34.0747 8.42928 34.0747 6.1602C34.0747 5.56404 34.5575 5.0802 35.1547 5.0802C35.7519 5.0802 36.2347 5.56404 36.2347 6.1602C36.2347 7.34388 36.8708 7.91844 37.9962 8.8332C39.1367 9.75984 40.5547 10.9122 40.5547 13.1813C40.5547 15.4514 39.1367 16.6038 37.9962 17.5304C36.8708 18.4452 36.2347 19.0198 36.2347 20.2034C36.2347 21.385 36.8708 21.9595 37.9962 22.8732C39.1367 23.7988 40.5547 24.9511 40.5547 27.2202C40.5547 29.4867 39.1361 30.638 37.9957 31.5635L37.9951 31.564C36.8708 32.4755 36.2347 33.05 36.2347 34.2305C36.2347 34.8266 35.7519 35.3105 35.1547 35.3105ZM49.6978 35.3105C49.1005 35.3105 48.6178 34.8266 48.6178 34.2305C48.6178 31.9636 50.0369 30.8112 51.1774 29.8867C52.3017 28.9741 52.9378 28.4006 52.9378 27.2202C52.9378 26.0376 52.3017 25.463 51.1763 24.5504C50.0358 23.6238 48.6178 22.4714 48.6178 20.2034C48.6178 17.9344 50.0358 16.7809 51.1763 15.8543C52.3017 14.9406 52.9378 14.365 52.9378 13.1813C52.9378 11.9987 52.3017 11.423 51.1763 10.5094C50.0358 9.58272 48.6178 8.42928 48.6178 6.1602C48.6178 5.56404 49.1005 5.0802 49.6978 5.0802C50.295 5.0802 50.7778 5.56404 50.7778 6.1602C50.7778 7.34388 51.4139 7.91844 52.5393 8.8332C53.6797 9.75984 55.0978 10.9122 55.0978 13.1813C55.0978 15.4514 53.6797 16.6038 52.5393 17.5304C51.4139 18.4452 50.7778 19.0198 50.7778 20.2034C50.7778 21.385 51.4139 21.9595 52.5393 22.8732C53.6797 23.7988 55.0978 24.9511 55.0978 27.2202C55.0978 29.4867 53.6792 30.638 52.5388 31.5635L52.5388 31.5635L52.5382 31.564C51.4139 32.4755 50.7778 33.05 50.7778 34.2305C50.7778 34.8266 50.295 35.3105 49.6978 35.3105ZM63.1619 34.2305C63.1619 34.8266 63.6447 35.3105 64.2419 35.3105C64.8392 35.3105 65.3219 34.8266 65.3219 34.2305C65.3219 33.05 65.958 32.4755 67.0823 31.564L67.0829 31.5635C68.2233 30.638 69.6419 29.4867 69.6419 27.2202C69.6419 24.9511 68.2239 23.7988 67.0834 22.8732C65.958 21.9595 65.3219 21.385 65.3219 20.2034C65.3219 19.0198 65.958 18.4452 67.0834 17.5304C68.2239 16.6038 69.6419 15.4514 69.6419 13.1813C69.6419 10.9122 68.2239 9.75984 67.0834 8.8332C65.958 7.91844 65.3219 7.34388 65.3219 6.1602C65.3219 5.56404 64.8392 5.0802 64.2419 5.0802C63.6447 5.0802 63.1619 5.56404 63.1619 6.1602C63.1619 8.42928 64.58 9.58272 65.7204 10.5094C66.8458 11.423 67.4819 11.9987 67.4819 13.1813C67.4819 14.365 66.8458 14.9406 65.7204 15.8543C64.58 16.7809 63.1619 17.9344 63.1619 20.2034C63.1619 22.4714 64.58 23.6238 65.7204 24.5504C66.8458 25.463 67.4819 26.0376 67.4819 27.2202C67.4819 28.4006 66.8458 28.9741 65.7215 29.8867C64.581 30.8112 63.1619 31.9636 63.1619 34.2305Z" fill="#FAFAED"/>
</svg>
