<svg width="104" height="95" viewBox="0 0 104 95" fill="none" xmlns="http://www.w3.org/2000/svg">
<path fill-rule="evenodd" clip-rule="evenodd" d="M102.617 40.513C102.617 30.9269 79.3725 22.828 51.8574 22.828C24.3422 22.828 1.09738 30.9269 1.09738 40.513C1.09738 42.1308 1.77346 43.7033 3.00574 45.2045C9.07642 37.8087 28.9851 32.211 51.8574 32.211C74.7307 32.211 94.6383 37.8087 100.71 45.2045C101.942 43.7033 102.617 42.1308 102.617 40.513Z" fill="#FF4E42"/>
<path fill-rule="evenodd" clip-rule="evenodd" d="M51.8574 32.2105C28.9852 32.2105 9.07645 37.8092 3.00577 45.204C9.07645 52.5998 28.9852 58.1986 51.8574 58.1986C74.7307 58.1986 94.6384 52.5998 100.71 45.204C94.6384 37.8092 74.7307 32.2105 51.8574 32.2105Z" fill="#FFC024"/>
<path fill-rule="evenodd" clip-rule="evenodd" d="M51.858 60.3583C77.8148 60.3583 98.8499 53.6893 103.716 44.5709C103.311 54.8082 99.2625 81.4313 68.5829 88.5452H35.1332C4.45144 81.4313 0.404683 54.8039 0.000762939 44.5687C4.86292 53.6882 25.9002 60.3583 51.858 60.3583ZM64.8373 94.4508H38.8784C36.8102 94.4508 35.1329 92.7736 35.1329 90.7054H68.5827C68.5827 92.7736 66.9055 94.4508 64.8373 94.4508Z" fill="#1820EF"/>
<path fill-rule="evenodd" clip-rule="evenodd" d="M35.1543 30.3105C34.5571 30.3105 34.0743 29.8266 34.0743 29.2305C34.0743 26.9636 35.4935 25.8112 36.6339 24.8867C37.7582 23.9741 38.3943 23.4006 38.3943 22.2202C38.3943 21.0376 37.7582 20.463 36.6329 19.5504C35.4924 18.6238 34.0743 17.4714 34.0743 15.2034C34.0743 12.9344 35.4924 11.7809 36.6329 10.8543C37.7582 9.9406 38.3943 9.36496 38.3943 8.18128C38.3943 6.99868 37.7582 6.42304 36.6329 5.50936C35.4924 4.58272 34.0743 3.42928 34.0743 1.1602C34.0743 0.56404 34.5571 0.0802002 35.1543 0.0802002C35.7516 0.0802002 36.2343 0.56404 36.2343 1.1602C36.2343 2.34388 36.8705 2.91844 37.9958 3.8332C39.1363 4.75984 40.5543 5.9122 40.5543 8.18128C40.5543 10.4514 39.1363 11.6038 37.9958 12.5304C36.8705 13.4452 36.2343 14.0198 36.2343 15.2034C36.2343 16.385 36.8705 16.9595 37.9958 17.8732C39.1363 18.7988 40.5543 19.9511 40.5543 22.2202C40.5543 24.4867 39.1357 25.638 37.9954 26.5635L37.9947 26.564C36.8705 27.4755 36.2343 28.05 36.2343 29.2305C36.2343 29.8266 35.7516 30.3105 35.1543 30.3105ZM49.6974 30.3105C49.1002 30.3105 48.6174 29.8266 48.6174 29.2305C48.6174 26.9636 50.0365 25.8112 51.177 24.8867C52.3013 23.9741 52.9374 23.4006 52.9374 22.2202C52.9374 21.0376 52.3013 20.463 51.1759 19.5504C50.0354 18.6238 48.6174 17.4714 48.6174 15.2034C48.6174 12.9344 50.0354 11.7809 51.1759 10.8543C52.3013 9.9406 52.9374 9.36496 52.9374 8.18128C52.9374 6.99868 52.3013 6.42304 51.1759 5.50936C50.0354 4.58272 48.6174 3.42928 48.6174 1.1602C48.6174 0.56404 49.1002 0.0802002 49.6974 0.0802002C50.2946 0.0802002 50.7774 0.56404 50.7774 1.1602C50.7774 2.34388 51.4135 2.91844 52.5389 3.8332C53.6794 4.75984 55.0974 5.9122 55.0974 8.18128C55.0974 10.4514 53.6794 11.6038 52.5389 12.5304C51.4135 13.4452 50.7774 14.0198 50.7774 15.2034C50.7774 16.385 51.4135 16.9595 52.5389 17.8732C53.6794 18.7988 55.0974 19.9511 55.0974 22.2202C55.0974 24.4867 53.6788 25.638 52.5384 26.5635L52.5384 26.5635L52.5378 26.564C51.4135 27.4755 50.7774 28.05 50.7774 29.2305C50.7774 29.8266 50.2946 30.3105 49.6974 30.3105ZM63.1615 29.2305C63.1615 29.8266 63.6443 30.3105 64.2415 30.3105C64.8388 30.3105 65.3215 29.8266 65.3215 29.2305C65.3215 28.05 65.9577 27.4755 67.0819 26.564L67.0826 26.5635C68.2229 25.638 69.6415 24.4867 69.6415 22.2202C69.6415 19.9511 68.2235 18.7988 67.083 17.8732C65.9577 16.9595 65.3215 16.385 65.3215 15.2034C65.3215 14.0198 65.9577 13.4452 67.083 12.5304C68.2235 11.6038 69.6415 10.4514 69.6415 8.18128C69.6415 5.9122 68.2235 4.75984 67.083 3.8332C65.9577 2.91844 65.3215 2.34388 65.3215 1.1602C65.3215 0.56404 64.8388 0.0802002 64.2415 0.0802002C63.6443 0.0802002 63.1615 0.56404 63.1615 1.1602C63.1615 3.42928 64.5796 4.58272 65.7201 5.50936C66.8454 6.42304 67.4815 6.99868 67.4815 8.18128C67.4815 9.36496 66.8454 9.9406 65.7201 10.8543C64.5796 11.7809 63.1615 12.9344 63.1615 15.2034C63.1615 17.4714 64.5796 18.6238 65.7201 19.5504C66.8454 20.463 67.4815 21.0376 67.4815 22.2202C67.4815 23.4006 66.8454 23.9741 65.7211 24.8867C64.5807 25.8112 63.1615 26.9636 63.1615 29.2305Z" fill="#1820EF"/>
</svg>
