<svg width="60" height="105" viewBox="0 0 60 105" fill="none" xmlns="http://www.w3.org/2000/svg">
<path fill-rule="evenodd" clip-rule="evenodd" d="M43.7013 87.7417C44.3323 87.8247 44.9493 88.0187 45.5153 88.3177L58.9253 95.3877C59.0893 95.4737 59.2043 95.6067 59.2963 95.7537C59.5953 94.9787 59.7063 94.1267 59.5673 93.2647C58.3487 85.675 55.2494 67.5921 52.5935 52.0961C51.1824 43.8632 49.8965 36.3606 49.0843 31.5497C48.6163 28.7837 45.8963 27.0327 43.1693 27.6887C40.9783 28.2157 38.8843 28.6017 36.8853 28.8797C36.9713 29.0097 37.0373 29.1547 37.0563 29.3207L43.7013 87.7417ZM15.0545 87.8723C14.6555 87.9773 14.2655 88.1233 13.8985 88.3173L0.489495 95.3873C0.394495 95.4373 0.322495 95.5093 0.251495 95.5823C0.00449542 94.8473 -0.0695046 94.0483 0.0674954 93.2473L10.7025 31.8673C11.1725 29.1073 13.8895 27.3083 16.6025 28.0013C18.1145 28.3873 19.9615 28.7603 22.0975 29.0333C22.0575 29.1233 22.0175 29.2133 22.0045 29.3153L15.0545 87.8723ZM1.27535 97.2176L1.27544 97.2176C1.32801 97.2065 1.38044 97.1954 1.4298 97.1689L14.7868 90.1259L13.1848 103.627L2.6618 98.3649C2.0948 98.0819 1.6148 97.6879 1.2128 97.2319C1.23355 97.2265 1.25446 97.222 1.27535 97.2176ZM41.6696 87.6923H17.1046L24.0046 29.5523C24.0176 29.4443 24.0006 29.3413 23.9796 29.2403C27.1636 29.5253 30.9016 29.5583 35.1186 29.0963C35.0676 29.2373 35.0386 29.3883 35.0566 29.5473L41.6696 87.6923ZM16.8653 89.706L15.1333 104.302C15.3413 104.33 15.5523 104.347 15.7623 104.347H43.5633L41.8983 89.706H16.8653ZM43.9413 89.8561C44.1583 89.9201 44.3743 89.9931 44.5763 90.0991L57.9853 97.1691C58.1033 97.2311 58.2293 97.2601 58.3543 97.2731C57.9653 97.6981 57.5043 98.0651 56.9653 98.3351L45.9583 103.838C45.8263 103.904 45.6883 103.959 45.5523 104.013L43.9413 89.8561Z" fill="#1820EF"/>
<path fill-rule="evenodd" clip-rule="evenodd" d="M15.1144 24.8486C19.9234 26.4766 30.9184 29.0466 44.4294 24.7566C46.1174 24.2216 47.1414 22.6366 46.8134 21.0426C45.9294 16.7516 42.5754 8.99957 29.8834 8.99957C17.0914 8.99957 13.7094 16.8726 12.8164 21.1416C12.4864 22.7186 13.4574 24.2866 15.1144 24.8486Z" fill="#FF4E42"/>
<path fill-rule="evenodd" clip-rule="evenodd" d="M31.2931 12.7207C31.2931 13.4627 30.6311 14.0637 29.8141 14.0637C28.9961 14.0637 28.3331 13.4627 28.3331 12.7207C28.3331 11.9797 28.9961 11.3787 29.8141 11.3787C30.6311 11.3787 31.2931 11.9797 31.2931 12.7207ZM25.0499 15.4062C25.0499 16.1472 24.3879 16.7492 23.5709 16.7492C22.7529 16.7492 22.0899 16.1472 22.0899 15.4062C22.0899 14.6642 22.7529 14.0632 23.5709 14.0632C24.3879 14.0632 25.0499 14.6642 25.0499 15.4062ZM36.0572 16.7492C36.8742 16.7492 37.5362 16.1472 37.5362 15.4062C37.5362 14.6642 36.8742 14.0632 36.0572 14.0632C35.2392 14.0632 34.5762 14.6642 34.5762 15.4062C34.5762 16.1472 35.2392 16.7492 36.0572 16.7492Z" fill="#1820EF"/>
<path fill-rule="evenodd" clip-rule="evenodd" d="M31 1C31 1.55175 30.5527 2 30.0007 2C29.448 2 29 1.55175 29 1C29 0.447506 29.448 0 30.0007 0C30.5527 0 31 0.447506 31 1ZM37 4.686C37 5.23775 36.5527 5.686 36.0007 5.686C35.448 5.686 35 5.23775 35 4.686C35 4.13351 35.448 3.686 36.0007 3.686C36.5527 3.686 37 4.13351 37 4.686ZM24.0007 5C24.5527 5 25 4.55175 25 4C25 3.44751 24.5527 3 24.0007 3C23.448 3 23 3.44751 23 4C23 4.55175 23.448 5 24.0007 5Z" fill="#FFC024"/>
</svg>
