<svg width="62" height="104" viewBox="0 0 62 104" fill="none" xmlns="http://www.w3.org/2000/svg">
<path fill-rule="evenodd" clip-rule="evenodd" d="M44.7449 3.40452H48.884C49.721 3.40452 50.4009 2.80352 50.4009 2.06152V1.69352C50.4009 0.951525 49.721 0.350525 48.884 0.350525H9.51686C8.67767 0.350525 8 0.951525 8 1.69352V2.06152C8 2.80352 8.67767 3.40452 9.51686 3.40452H17.1059L19.0139 7.67974C19.0139 7.67974 31.2646 10.6504 42.8369 7.67974L44.7449 3.40452Z" fill="#FF4E42"/>
<path fill-rule="evenodd" clip-rule="evenodd" d="M1.22373 62.5268C2.00648 57.1837 3.35719 52.2786 4.98248 47.71C13.3879 49.636 31.3092 52.1846 56.6617 47.5669C58.3102 52.1761 59.6787 57.1282 60.4703 62.5268C62.8329 78.6478 61.2375 89.1865 60.1758 93.7903C54.0499 90.8966 42.508 89.4033 31.0612 89.4033C19.3654 89.4033 7.57762 90.9628 1.5614 93.9815C0.499654 89.4706 -1.1677 78.8497 1.22373 62.5268ZM2.13642 96.7147C2.13642 96.7147 2.08408 96.5715 2.00056 96.3022C6.55494 93.9513 16.8262 91.7501 31.1085 91.7501C45.1201 91.7501 55.2711 93.8684 59.9513 96.1687C58.5405 100.521 46.1045 103.924 30.967 103.924C16.4688 103.924 4.45035 100.802 2.21993 96.7147H2.13642Z" fill="#1820EF"/>
<path fill-rule="evenodd" clip-rule="evenodd" d="M56 45.444C50.7799 31.459 43.4191 20.5341 41.7815 10C29.6722 13.7304 19.2613 10 19.2613 10C17.6192 20.5642 10.2212 31.5225 5 45.5642C13.4165 47.4662 31.2558 49.9883 56 45.444Z" fill="#FFC024"/>
<path fill-rule="evenodd" clip-rule="evenodd" d="M55.9251 71C55.3665 71 54.8949 70.5741 54.8552 70.0168C52.6058 39.1376 40.3245 21.8466 40.1999 21.675C39.855 21.1983 39.9678 20.5372 40.4501 20.1971C40.9325 19.857 41.6049 19.9683 41.9476 20.444C42.4686 21.1623 54.7059 38.396 56.9971 69.8643C57.0401 70.448 56.5943 70.9555 56.0024 70.9979C55.9766 70.9989 55.9509 71 55.9251 71Z" fill="#FAFAED"/>
</svg>
